<svg width="29" height="29" viewBox="0 0 29 29" fill="none" xmlns="http://www.w3.org/2000/svg">
<path d="M2 14.7549C2 11.8944 2 10.4641 2.649 9.27843C3.298 8.09276 4.48369 7.35689 6.85504 5.88516L9.35504 4.33359C11.8617 2.77786 13.1151 2 14.5 2C15.8849 2 17.1382 2.77786 19.645 4.33359L22.145 5.88515C24.5164 7.35689 25.702 8.09276 26.351 9.27843C27 10.4641 27 11.8944 27 14.7549V16.6562C27 21.5323 27 23.9704 25.5355 25.4851C24.0711 27 21.714 27 17 27H12C7.28595 27 4.92894 27 3.46446 25.4851C2 23.9704 2 21.5323 2 16.6562V14.7549Z" fill="#FE82A7" stroke="#FE82A7" stroke-width="2.1"/>
<path d="M18.25 22H10.75" stroke="white" stroke-width="2.1" stroke-linecap="round"/>
</svg>
