<svg width="25" height="25" viewBox="0 0 25 25" fill="none" xmlns="http://www.w3.org/2000/svg">
<path d="M10.5762 0.136277C13.1995 -0.234397 15.8758 0.162235 18.2208 1.25639C18.7262 1.49239 18.8569 2.1054 18.5352 2.5728C18.2232 3.02587 17.6018 3.17155 17.1085 2.94878C15.1993 2.08639 13.0337 1.77769 10.9102 2.07768C8.45863 2.42411 6.22606 3.55923 4.62116 5.27495C3.01624 6.99085 2.14556 9.17361 2.16902 11.4234C2.19251 13.6731 3.10871 15.8398 4.74909 17.5279C6.3895 19.2159 8.6451 20.3124 11.1036 20.6167C13.562 20.921 16.0594 20.4136 18.1387 19.1861C20.2182 17.9585 21.741 16.0929 22.4288 13.9312C23.0091 12.1069 22.9619 10.1741 22.3087 8.38725C22.1112 7.84719 22.367 7.21111 22.9356 6.97319C23.4519 6.75739 24.0417 6.94928 24.2374 7.43315C25.1489 9.68719 25.2504 12.1543 24.5118 14.4761C23.6798 17.0913 21.837 19.3474 19.3214 20.8326C16.8056 22.3177 13.784 22.9332 10.8096 22.565C10.302 22.5021 9.80147 22.411 9.31062 22.2935C9.26643 22.321 9.21929 22.3463 9.16902 22.3687L3.47761 24.9009C2.7604 25.2201 1.95801 24.7321 2.01179 24.0093L2.43855 18.2779C2.44319 18.2154 2.45381 18.1548 2.4698 18.0972C0.896125 16.1782 0.0261711 13.8492 0.00104713 11.4419C-0.0273347 8.72013 1.02619 6.07939 2.96784 4.00346C4.90947 1.92778 7.61027 0.555394 10.5762 0.136277Z" fill="#FE82A7"/>
<path d="M7.48291 13.8662C8.85012 16.6988 14.9049 17.2299 17.0534 13.8662" stroke="#FE82A7" stroke-width="2" stroke-linecap="round"/>
</svg>
