<svg width="23" height="26" viewBox="0 0 23 26" fill="none" xmlns="http://www.w3.org/2000/svg">
<path d="M9.751 0.633394C12.1206 0.264207 14.5374 0.656106 16.6592 1.73789C17.1438 1.98498 17.2832 2.59678 16.9951 3.0582C16.7071 3.51952 16.1013 3.65462 15.6123 3.4166C13.8956 2.58029 11.9559 2.28421 10.0537 2.58066C7.82583 2.92792 5.79731 4.06513 4.33889 5.78476C2.88041 7.50453 2.08905 9.69203 2.11037 11.9469C2.13173 14.2017 2.9644 16.3732 4.4551 18.065C5.94581 19.7569 7.99534 20.8557 10.2295 21.1607C12.4637 21.4658 14.7333 20.9565 16.6231 19.7262C18.5126 18.4958 19.8965 16.627 20.5215 14.4605C21.0551 12.6108 21.0051 10.6497 20.3916 8.8414C20.2169 8.32631 20.4271 7.7421 20.9209 7.51425C21.415 7.28649 22.0053 7.50137 22.1895 8.01328C22.9956 10.2546 23.0789 12.7019 22.4141 15.0064C21.658 17.6275 19.9843 19.8891 17.6983 21.3775C15.4121 22.866 12.6659 23.4819 9.96291 23.1129C9.49791 23.0494 9.03935 22.9576 8.58986 22.8385C8.53926 22.8766 8.48414 22.9114 8.42385 22.941L3.41408 25.399C2.72319 25.7378 1.92502 25.2019 1.97658 24.4342L2.35158 18.8697C2.35691 18.7913 2.37065 18.7166 2.39162 18.6461C0.95665 16.7207 0.163518 14.3825 0.140645 11.9654C0.114853 9.23748 1.07147 6.59095 2.83596 4.51035C4.60044 2.42978 7.0555 1.05348 9.751 0.633394Z" fill="#FE82A7"/>
<path d="M6.93945 14.3975C8.18191 17.2374 13.6842 17.7698 15.6366 14.3975" stroke="#FE82A7" stroke-width="2" stroke-linecap="round"/>
</svg>
