<svg width="59" height="15" viewBox="0 0 59 15" fill="none" xmlns="http://www.w3.org/2000/svg">
<path d="M0.669922 14V1.02734H6.29492C7.54883 1.02734 8.52148 1.22949 9.21289 1.63379C9.9043 2.03223 10.3877 2.57422 10.6631 3.25977C10.9385 3.93945 11.0762 4.7041 11.0762 5.55371V9.53516C11.0762 10.3965 10.9297 11.1641 10.6367 11.8379C10.3496 12.5117 9.86035 13.042 9.16895 13.4287C8.47754 13.8096 7.52246 14 6.30371 14H0.669922ZM3.28027 11.9697H6.0752C6.69043 11.9697 7.1709 11.8965 7.5166 11.75C7.8623 11.5977 8.10547 11.3662 8.24609 11.0557C8.39258 10.7451 8.46582 10.3496 8.46582 9.86914V5.21094C8.46582 4.74219 8.39258 4.34961 8.24609 4.0332C8.09961 3.71094 7.85059 3.46777 7.49902 3.30371C7.15332 3.13965 6.67871 3.05762 6.0752 3.05762H3.28027V11.9697ZM14.1523 1.02734H16.7627V11.9609H22.1855V14H14.1523V1.02734ZM28.8301 14.2285C27.9453 14.2285 27.0547 14.123 26.1582 13.9121C25.2617 13.7012 24.4883 13.4141 23.8379 13.0508L24.7344 11.1436C25.2324 11.4072 25.8271 11.6475 26.5186 11.8643C27.2158 12.0752 27.9658 12.1807 28.7686 12.1807C29.3018 12.1807 29.7031 12.1045 29.9727 11.9521C30.248 11.7998 30.4326 11.5889 30.5264 11.3193C30.626 11.0439 30.6758 10.7305 30.6758 10.3789C30.6758 10.1387 30.6348 9.91895 30.5527 9.71973C30.4707 9.51465 30.3008 9.32715 30.043 9.15723C29.791 8.98145 29.4043 8.81738 28.8828 8.66504L26.668 8.01465C25.9648 7.80371 25.417 7.52246 25.0244 7.1709C24.6377 6.81348 24.3652 6.39746 24.207 5.92285C24.0547 5.44824 23.9785 4.93555 23.9785 4.38477C23.9785 3.57617 24.1748 2.9082 24.5674 2.38086C24.9658 1.85352 25.5049 1.46094 26.1846 1.20312C26.8701 0.939453 27.6377 0.807617 28.4873 0.807617C29.3428 0.807617 30.1309 0.889648 30.8516 1.05371C31.5723 1.21777 32.2314 1.47266 32.8291 1.81836L32.0908 3.65527C31.6104 3.42676 31.0859 3.23633 30.5176 3.08398C29.9492 2.93164 29.3486 2.85547 28.7158 2.85547C28.0537 2.85547 27.5264 2.95801 27.1338 3.16309C26.7412 3.3623 26.5449 3.74023 26.5449 4.29688C26.5449 4.74219 26.6592 5.08496 26.8877 5.3252C27.1221 5.56543 27.5674 5.78516 28.2236 5.98438L30.4297 6.64355C31.3027 6.90723 31.959 7.32617 32.3984 7.90039C32.8379 8.47461 33.0576 9.27148 33.0576 10.291C33.0576 11.0234 32.9111 11.6885 32.6182 12.2861C32.3252 12.8779 31.8682 13.3496 31.2471 13.7012C30.626 14.0527 29.8203 14.2285 28.8301 14.2285ZM35.8613 10.9502V6.08105H34.6133V4.56055H35.9316L36.1514 1.52832H38.252V4.56055H40.4932V6.08105H38.252V10.7744C38.252 11.3604 38.3779 11.7676 38.6299 11.9961C38.8877 12.2188 39.377 12.3301 40.0977 12.3301H40.5547L40.4668 14.1055H39.8164C38.8672 14.1055 38.1025 14.0117 37.5225 13.8242C36.9424 13.6367 36.5205 13.3145 36.2568 12.8574C35.9932 12.3945 35.8613 11.7588 35.8613 10.9502ZM44.9053 14.2021C44.3662 14.2021 43.8916 14.0967 43.4814 13.8857C43.0713 13.6748 42.749 13.376 42.5146 12.9893C42.2861 12.6025 42.1719 12.1484 42.1719 11.627C42.1719 11.1816 42.2627 10.7861 42.4443 10.4404C42.626 10.0947 42.957 9.77539 43.4375 9.48242C43.918 9.18359 44.6064 8.89355 45.5029 8.6123C45.9951 8.4541 46.3994 8.30762 46.7158 8.17285C47.0322 8.03809 47.2666 7.8916 47.4189 7.7334C47.5713 7.5752 47.6475 7.3877 47.6475 7.1709C47.6475 6.91895 47.5977 6.70801 47.498 6.53809C47.3984 6.36816 47.2402 6.24219 47.0234 6.16016C46.8066 6.07227 46.5195 6.02832 46.1621 6.02832C45.7637 6.02832 45.459 6.08105 45.248 6.18652C45.0371 6.29199 44.8906 6.43848 44.8086 6.62598C44.7324 6.81348 44.6943 7.03027 44.6943 7.27637V7.64551H42.4531V7.36426C42.4531 6.4502 42.7578 5.7207 43.3672 5.17578C43.9766 4.63086 44.9258 4.3584 46.2148 4.3584C47.1582 4.3584 47.9053 4.49023 48.4561 4.75391C49.0068 5.01758 49.4023 5.38965 49.6426 5.87012C49.8828 6.34473 50.0029 6.90723 50.0029 7.55762V11.293C50.0029 11.7207 50.0557 12.002 50.1611 12.1367C50.2725 12.2656 50.4746 12.3301 50.7676 12.3301L50.6709 14.0703H50.1699C49.5137 14.0703 49.0039 13.9795 48.6406 13.7979C48.2773 13.6162 48.0107 13.335 47.8408 12.9541C47.6709 13.1768 47.4424 13.3848 47.1553 13.5781C46.874 13.7656 46.543 13.915 46.1621 14.0264C45.7871 14.1436 45.3682 14.2021 44.9053 14.2021ZM45.7051 12.6113C45.8984 12.6113 46.1182 12.5762 46.3643 12.5059C46.6104 12.4297 46.8477 12.3184 47.0762 12.1719C47.3105 12.0254 47.501 11.8379 47.6475 11.6094V9.21875C47.4893 9.34766 47.2373 9.49121 46.8916 9.64941C46.5459 9.80176 46.1738 9.95117 45.7754 10.0977C45.2539 10.291 44.9111 10.5049 44.7471 10.7393C44.583 10.9736 44.501 11.2256 44.501 11.4951C44.501 11.876 44.6123 12.1572 44.835 12.3389C45.0576 12.5205 45.3477 12.6113 45.7051 12.6113ZM52.9121 4.56055H55.3027V5.68555C55.4434 5.43945 55.6895 5.22266 56.041 5.03516C56.3984 4.8418 56.8057 4.69238 57.2627 4.58691C57.7197 4.47559 58.1768 4.41992 58.6338 4.41992L58.5811 6.4502C58.2764 6.46777 57.9453 6.50586 57.5879 6.56445C57.2305 6.62305 56.8848 6.70215 56.5508 6.80176C56.2227 6.90137 55.9443 7.02441 55.7158 7.1709C55.4873 7.31738 55.3496 7.48438 55.3027 7.67188V14H52.9121V4.56055Z" fill="url(#paint0_linear_287_81)"/>
<defs>
<linearGradient id="paint0_linear_287_81" x1="-1.5" y1="11" x2="55" y2="13.5" gradientUnits="userSpaceOnUse">
<stop stop-color="#46A8F1"/>
<stop offset="1" stop-color="#E578AB"/>
</linearGradient>
</defs>
</svg>
