<svg width="28" height="28" viewBox="0 0 28 28" fill="none" xmlns="http://www.w3.org/2000/svg">
<path d="M1.5 14.2549C1.5 11.3944 1.5 9.9641 2.149 8.77843C2.798 7.59276 3.98369 6.85689 6.35504 5.38516L8.85504 3.83359C11.3617 2.27786 12.6151 1.5 14 1.5C15.3849 1.5 16.6382 2.27786 19.145 3.83359L21.645 5.38515C24.0164 6.85689 25.202 7.59276 25.851 8.77843C26.5 9.9641 26.5 11.3944 26.5 14.2549V16.1562C26.5 21.0323 26.5 23.4704 25.0355 24.9851C23.5711 26.5 21.214 26.5 16.5 26.5H11.5C6.78595 26.5 4.42894 26.5 2.96446 24.9851C1.5 23.4704 1.5 21.0323 1.5 16.1562V14.2549Z" fill="#FE82A7" stroke="#FE82A7" stroke-width="2.1"/>
<path d="M17.75 21.5H10.25" stroke="white" stroke-width="2.1" stroke-linecap="round"/>
</svg>
