<svg width="31" height="31" viewBox="0 0 31 31" fill="none" xmlns="http://www.w3.org/2000/svg">
<path d="M27.5299 23.4545C27.5299 23.9045 27.4299 24.367 27.2174 24.817C27.0996 25.0664 26.9628 25.308 26.8024 25.542C26.7465 25.6234 26.6879 25.7039 26.6263 25.7834C26.5454 25.8879 26.4591 25.9907 26.3674 26.092C26.1304 26.3531 25.8841 26.5862 25.6269 26.792C25.2195 27.118 24.7849 27.3754 24.3174 27.567C23.5674 27.8795 22.7549 28.042 21.8799 28.042C20.6049 28.042 19.2424 27.742 17.8049 27.1295C16.3674 26.517 14.9299 25.692 13.5049 24.6545C12.0674 23.6045 10.7049 22.442 9.40488 21.1545C8.11738 19.8545 6.95488 18.492 5.91738 17.067C4.89238 15.642 4.06738 14.217 3.46738 12.8045C2.86738 11.3795 2.56738 10.017 2.56738 8.71699C2.56738 7.86699 2.71738 7.05449 3.01738 6.30449C3.31738 5.54199 3.79238 4.84199 4.45488 4.21699C5.25488 3.42949 6.12988 3.04199 7.05488 3.04199C7.40488 3.04199 7.75488 3.11699 8.06738 3.26699C8.39238 3.41699 8.67988 3.64199 8.90488 3.96699L11.8049 8.05449C12.0299 8.36699 12.1924 8.65449 12.3049 8.92949C12.4174 9.19199 12.4799 9.45449 12.4799 9.69199C12.4799 9.99199 12.3924 10.292 12.2174 10.5795C12.0549 10.867 11.8174 11.167 11.5174 11.467L10.5674 12.4545C10.4299 12.592 10.3674 12.7545 10.3674 12.9545C10.3674 13.0545 10.3799 13.142 10.4049 13.242C10.4424 13.342 10.4799 13.417 10.5049 13.492C10.7299 13.9045 11.1174 14.442 11.6674 15.092C12.2299 15.742 12.8299 16.4045 13.4799 17.067C14.1549 17.7295 14.8049 18.342 15.4674 18.9045C16.1174 19.4545 16.6549 19.8295 17.0799 20.0545C17.1424 20.0795 17.2174 20.117 17.3049 20.1545C17.4049 20.192 17.5049 20.2045 17.6174 20.2045C17.8299 20.2045 17.9924 20.1295 18.1299 19.992L19.0799 19.0545C19.3924 18.742 19.6924 18.5045 19.9799 18.3545C20.2674 18.1795 20.5549 18.092 20.8674 18.092C21.1049 18.092 21.3549 18.142 21.6299 18.2545C21.9049 18.367 22.1924 18.5295 22.5049 18.742L26.6424 21.6795C26.9674 21.9045 27.1924 22.167 27.3299 22.4795C27.4549 22.792 27.5299 23.1045 27.5299 23.4545Z" fill="white"/>
<path fill-rule="evenodd" clip-rule="evenodd" d="M3.80436 3.54185C4.7443 2.61947 5.84312 2.10449 7.05488 2.10449C7.53386 2.10449 8.02127 2.20622 8.46665 2.41874C8.92682 2.63235 9.34625 2.9594 9.67233 3.42852L12.5678 7.50949C12.824 7.86582 13.0245 8.21444 13.1696 8.56743C13.317 8.91337 13.4174 9.30004 13.4174 9.69199C13.4174 10.1756 13.2765 10.6378 13.0261 11.0537C12.8134 11.4268 12.5227 11.7866 12.1869 12.1233L11.326 13.0182C11.3347 13.0388 11.3464 13.0666 11.359 13.0989C11.5461 13.4269 11.8774 13.8885 12.3797 14.4825C12.9299 15.1181 13.5134 15.7621 14.1429 16.4041C14.8078 17.0565 15.4375 17.6492 16.0734 18.1892C16.6746 18.6979 17.1431 19.0221 17.4836 19.2072C17.5111 19.2191 17.5365 19.2306 17.5571 19.24L18.4193 18.3892C18.7611 18.0477 19.1276 17.7467 19.5189 17.5377C19.9276 17.2944 20.3733 17.1545 20.8674 17.1545C21.2423 17.1545 21.6126 17.2345 21.9849 17.3867C22.3385 17.5315 22.6848 17.7306 23.032 17.9667L23.0399 17.9721L27.181 20.9121C27.6243 21.2201 27.9716 21.6101 28.188 22.1019L28.1944 22.1165L28.2004 22.1314C28.3596 22.5295 28.4674 22.9609 28.4674 23.4545C28.4674 24.0451 28.3358 24.6441 28.0651 25.2174C27.9273 25.5092 27.7658 25.7946 27.5756 26.072C27.5096 26.1684 27.4403 26.2636 27.3674 26.3576C27.2716 26.4812 27.1699 26.6025 27.062 26.7215C26.7943 27.0166 26.5116 27.2849 26.2126 27.524C25.7386 27.9034 25.2278 28.2067 24.6755 28.4334C23.8076 28.7946 22.873 28.9795 21.8799 28.9795C20.4566 28.9795 18.969 28.6446 17.4374 27.992C15.928 27.3489 14.4293 26.4871 12.9531 25.4124L12.9519 25.4115C11.4758 24.3334 10.0777 23.1402 8.74518 21.8206L8.73875 21.8142C7.41922 20.4819 6.22585 19.0835 5.15948 17.6187L5.15631 17.6145C4.09831 16.1436 3.23626 14.6582 2.60451 13.171L2.60335 13.1682C1.96387 11.6496 1.62988 10.1633 1.62988 8.71699C1.62988 7.75679 1.79938 6.82614 2.14596 5.95877C2.49847 5.0639 3.05217 4.25329 3.80436 3.54185Z" fill="white"/>
<path fill-rule="evenodd" clip-rule="evenodd" d="M26.0676 4.0001C26.0326 4.00111 25.9976 4.00415 25.9629 4.0092L21.4636 4.65195C21.3454 4.66872 21.2316 4.70862 21.1288 4.76936C21.026 4.83011 20.9362 4.91049 20.8645 5.00596C20.7927 5.10142 20.7405 5.2101 20.7108 5.32575C20.6811 5.4414 20.6744 5.56178 20.6913 5.68C20.7255 5.91845 20.8531 6.13352 21.0458 6.27801C21.2386 6.42249 21.4808 6.48455 21.7193 6.45057L23.5215 6.19311L17.2662 12.4484C16.9113 12.8034 16.9113 13.3789 17.2662 13.7339C17.6212 14.0888 18.1967 14.0888 18.5517 13.7339L24.8034 7.4822L24.5478 9.27904C24.5307 9.39739 24.5372 9.51796 24.5668 9.63382C24.5964 9.74967 24.6485 9.85856 24.7203 9.95422C24.792 10.0499 24.8819 10.1305 24.9849 10.1913C25.0878 10.2522 25.2017 10.2921 25.3201 10.3089C25.4384 10.3257 25.5587 10.319 25.6744 10.2893C25.79 10.2596 25.8987 10.2074 25.9942 10.1357C26.0896 10.0639 26.17 9.9741 26.2308 9.8713C26.2915 9.76849 26.3314 9.65475 26.3482 9.53652L26.9909 5.03725C27.0096 4.9064 26.9994 4.77305 26.9612 4.64652C26.923 4.51998 26.8577 4.40329 26.7698 4.30458C26.6819 4.20587 26.5736 4.12753 26.4523 4.07498C26.331 4.02243 26.1998 3.99673 26.0676 4.0001Z" fill="#FF0000"/>
</svg>
